<svg width="24" height="25" viewBox="0 0 24 25" fill="none" xmlns="http://www.w3.org/2000/svg">
<path d="M15.5001 14.5H14.7101L14.4301 14.23C15.6301 12.83 16.2501 10.92 15.9101 8.89002C15.4401 6.11002 13.1201 3.89002 10.3201 3.55002C6.09014 3.03002 2.53014 6.59001 3.05014 10.82C3.39014 13.62 5.61014 15.94 8.39014 16.41C10.4201 16.75 12.3301 16.13 13.7301 14.93L14.0001 15.21V16L18.2501 20.25C18.6601 20.66 19.3301 20.66 19.7401 20.25C20.1501 19.84 20.1501 19.17 19.7401 18.76L15.5001 14.5ZM9.50014 14.5C7.01014 14.5 5.00014 12.49 5.00014 10C5.00014 7.51002 7.01014 5.50002 9.50014 5.50002C11.9901 5.50002 14.0001 7.51002 14.0001 10C14.0001 12.49 11.9901 14.5 9.50014 14.5Z" fill="#A2A2A2"/>
</svg>
